####
#
#	OBJ File Generated by LightWave3D
#	LightWave3D OBJ Export v2.3
#
####
o room_ceiling.obj
mtllib room_ceiling.mtl
g default
v -2 0.5 2
v -2 0.5 -2
v -0.1 0.75 0.1
v -0.1 0.75 -0.1
v -0.1 1.01 0.1
v -0.1 1.01 -0.1
v 0.1 0.75 0.1
v 0.1 0.75 -0.1
v 0.1 1.01 0.1
v 0.1 1.01 -0.1
v 2 0.5 2
v 2 0.5 -2
vt -3.5 -3.5
vt -3.5 4.5
vt 0.3 0.3
vt 0.3 0.7
vt 0.3 2
vt 0.3 2.52
vt 0.7 0.3
vt 0.7 0.7
vt 0.7 2
vt 0.7 2.52
vt 4.5 -3.5
vt 4.5 4.5
vn -0.707107 0 0.707107
vn -0.707107 0 -0.707107
vn -0.590664 -0.549757 0.590664
vn -0.3684 -0.869019 -0.330285
vn -0.0655066 -0.9957 0.0655066
vn -0.0436502 -0.995225 -0.0873005
vn 0.0655066 -0.9957 0.0655066
vn 0.0873005 -0.995225 -0.0436502
vn 0.289608 -0.761994 -0.579216
vn 0.447214 0 0.894427
vn 0.477392 -0.837384 0.266242
vn 0.894427 0 -0.447214
usemtl Default
s off
f 1/1/8 3/3/9 11/11/6
f 3/3/9 7/7/4 11/11/6
f 2/2/7 4/4/11 1/1/8
f 4/4/11 3/3/9 1/1/8
f 8/8/3 4/4/11 12/12/5
f 12/12/5 4/4/11 2/2/7
f 7/7/4 12/12/5 11/11/6
f 7/7/4 8/8/3 12/12/5
f 3/5/9 9/10/2 7/9/4
f 5/6/12 9/10/2 3/5/9
f 4/9/11 5/6/12 3/5/9
f 6/10/10 5/6/12 4/9/11
f 8/9/3 6/6/10 4/5/11
f 10/10/1 6/6/10 8/9/3
f 9/6/2 8/9/3 7/5/4
f 9/6/2 10/10/1 8/9/3
