####
#
#	OBJ File Generated by LightWave3D
#	LightWave3D OBJ Export v2.3
#
####
o room_wall_broken.obj
mtllib room_wall_broken.mtl
g default
v -0.537869 0.507442 -1.94322
v -0.537768 0.263168 -1.99073
v -0.537501 0.508132 -1.94295
v -0.511209 0.277588 -2.0648
v -0.510942 0.522551 -2.01702
v -0.50972 0.202978 -1.96391
v -0.509391 0.203793 -1.96355
v -0.488372 -0.0360983 -2.03226
v -0.486914 0.226746 -2.03682
v -0.465895 -0.0131456 -2.10552
v -0.0670911 0.472564 -1.77859
v -0.0670299 0.211807 -1.83195
v -0.0666612 0.212496 -1.83168
v -0.0401636 0.487673 -1.85239
v -0.0401024 0.226916 -1.90575
v -0.0316036 0.188845 -1.81896
v -0.00976507 -0.033779 -1.88471
v -0.00943649 -0.0329638 -1.88434
v -0.00879802 0.212613 -1.89186
v 0.0130405 -0.0100112 -1.95761
v 0.0534368 0.020118 -1.94428
v 0.0637056 0.240189 -1.86796
v 0.0649129 -0.00630023 -1.86964
v 0.0749547 0.21335 -1.79344
v 0.0751817 0.213771 -1.79332
v 0.0994598 0.500008 -1.89192
v 0.100724 0.233856 -1.89034
v 0.123364 0.500142 -1.81557
v 0.123583 0.500575 -1.81564
v 0.124847 0.234422 -1.81407
v 0.546521 0.0214846 -2.01961
v 0.557109 0.242037 -1.94177
v 0.55777 -0.00535461 -1.94509
v 0.557997 -0.00493362 -1.94497
v 0.568359 0.215197 -1.86725
v 0.576399 0.234077 -2.04078
v 0.57652 0.500046 -2.04129
v 0.600303 0.234211 -1.96444
v 0.600425 0.50018 -1.96494
v 0.600522 0.234643 -1.96451
vt -0.5 0.5
vt -0.5 1
vt -0.5 1.5
vt 0.5 0.5
vt 0.5 1
vt 0.5 1.5
vt 1.5 0.5
vt 1.5 1
vt 1.5 1.5
vn -0.748046 -0.6239 0.22622
vn -0.722533 -0.58256 -0.372251
vn -0.700684 -0.0373379 0.712494
vn -0.680203 -0.357295 -0.640051
vn -0.663494 -0.720211 0.20266
vn -0.63518 0.403459 -0.65861
vn -0.634107 -0.182453 0.751411
vn -0.611617 0.393567 0.686316
vn -0.577725 0.501306 0.644147
vn -0.514742 -0.738189 0.436025
vn -0.500867 0.654507 -0.566351
vn -0.374614 -0.574393 0.72783
vn -0.369417 -0.41833 -0.829778
vn -0.338335 -0.38817 -0.857236
vn -0.262195 0.355058 0.897323
vn -0.252173 -0.227314 0.940605
vn -0.18312 0.63169 -0.753283
vn -0.143548 0.618725 0.772382
vn -0.134741 0.107035 0.985083
vn -0.109812 0.577496 -0.808975
vn 0.071922 -0.295822 0.952532
vn 0.112338 -0.758852 0.641501
vn 0.142397 -0.350312 0.925746
vn 0.144674 -0.411861 -0.899689
vn 0.224006 -0.791465 0.568686
vn 0.268075 -0.110823 -0.957003
vn 0.347283 0.378018 0.858194
vn 0.350284 0.417296 0.838549
vn 0.378266 0.576011 -0.724656
vn 0.455576 -0.808585 0.372346
vn 0.511167 -0.383222 0.769317
vn 0.516334 0.740008 -0.431031
vn 0.56071 -0.61426 0.555237
vn 0.647041 -0.276772 -0.710447
vn 0.657973 -0.149027 -0.738149
vn 0.672698 0.717163 -0.182082
vn 0.675078 -0.0991445 0.731054
vn 0.678647 0.352742 0.644213
vn 0.723416 0.577946 0.377687
vn 0.738619 0.63519 -0.225778
usemtl Default
s off
f 7/2/8 8/1/5 18/4/23
f 16/5/27 6/2/7 17/4/25
f 39/9/39 28/6/19 38/8/33
f 40/8/37 29/6/18 30/5/12
f 37/9/29 39/9/39 38/8/33 36/8/24
f 38/8/33 28/6/19 26/6/6 36/8/24
f 28/6/19 39/9/39 37/9/29 26/6/6
f 36/8/24 40/8/37 30/5/12 27/5/2
f 30/5/12 29/6/18 26/6/6 27/5/2
f 26/6/6 29/6/18 40/8/37 36/8/24
f 3/3/9 2/2/1 13/5/21
f 11/6/28 1/3/3 12/5/22
f 5/3/20 3/3/9 13/5/21 15/5/34
f 13/5/21 2/2/1 4/2/13 15/5/34
f 2/2/1 3/3/9 5/3/20 4/2/13
f 14/6/40 11/6/28 12/5/22 15/5/34
f 12/5/22 1/3/3 5/3/20 15/5/34
f 1/3/3 11/6/28 14/6/40 5/3/20
f 25/5/15 23/4/10 34/7/31
f 35/8/38 24/5/16 33/7/30
f 22/5/11 25/5/15 34/7/31 31/7/26
f 34/7/31 23/4/10 21/4/4 31/7/26
f 23/4/10 25/5/15 22/5/11 21/4/4
f 32/8/32 35/8/38 33/7/30 31/7/26
f 33/7/30 24/5/16 22/5/11 31/7/26
f 24/5/16 35/8/38 32/8/32 22/5/11
f 9/2/17 7/2/8 18/4/23 20/4/35
f 20/4/35 18/4/23 8/1/5 10/1/14
f 8/1/5 7/2/8 9/2/17 10/1/14
f 19/5/36 16/5/27 17/4/25 20/4/35
f 17/4/25 6/2/7 9/2/17 20/4/35
f 9/2/17 6/2/7 16/5/27 19/5/36
f 36/8/24 27/5/2 26/6/6
f 26/6/6 37/9/29 36/8/24
f 31/7/26 21/4/4 22/5/11
f 22/5/11 32/8/32 31/7/26
f 5/3/20 14/6/40 15/5/34
f 15/5/34 4/2/13 5/3/20
f 20/4/35 10/1/14 9/2/17
f 9/2/17 19/5/36 20/4/35
