# Blender v2.80 (sub 75) OBJ File: ''
# www.blender.org
mtllib pedestal.mtl
o pedestal.obj
v 0.022839 0.000000 -0.010168
v 0.025000 0.000000 0.000000
v 0.022839 -0.000000 0.010168
v 0.016728 0.000000 -0.018579
v 0.007725 0.000000 -0.023776
v -0.002613 0.000000 -0.024863
v -0.012500 0.000000 -0.021651
v -0.020225 0.000000 -0.014695
v -0.024454 0.000000 -0.005198
v -0.024454 -0.000000 0.005198
v -0.020225 -0.000000 0.014695
v 0.016728 -0.000000 0.018579
v -0.012500 -0.000000 0.021651
v -0.002613 -0.000000 0.024863
v 0.007725 -0.000000 0.023776
v 0.025000 0.010000 0.000000
v 0.022839 0.010000 -0.010168
v 0.016728 0.010000 -0.018579
v 0.007725 0.010000 -0.023776
v -0.002613 0.010000 -0.024863
v -0.012500 0.010000 -0.021651
v -0.020225 0.010000 -0.014695
v -0.024454 0.010000 -0.005198
v -0.024454 0.010000 0.005198
v -0.020225 0.010000 0.014695
v -0.012500 0.010000 0.021651
v -0.002613 0.010000 0.024863
v 0.007725 0.010000 0.023776
v 0.016728 0.010000 0.018579
v 0.022839 0.010000 0.010168
v 0.008829 0.010000 -0.003931
v 0.009665 0.010000 0.000000
v 0.008829 0.010000 0.003931
v 0.006467 0.010000 0.007182
v 0.002987 0.010000 0.009192
v -0.001010 0.010000 0.009612
v -0.004832 0.010000 0.008370
v -0.007819 0.010000 0.005681
v -0.009454 0.010000 0.002009
v -0.009454 0.010000 -0.002009
v -0.007819 0.010000 -0.005681
v -0.004832 0.010000 -0.008370
v -0.001010 0.010000 -0.009612
v 0.002987 0.010000 -0.009192
v 0.006467 0.010000 -0.007182
v 0.009665 0.100000 0.000000
v 0.008829 0.100000 -0.003931
v 0.008829 0.100000 0.003931
v 0.006467 0.100000 0.007182
v 0.002987 0.100000 0.009192
v -0.001010 0.100000 0.009612
v -0.004832 0.100000 0.008370
v -0.007819 0.100000 0.005681
v -0.009454 0.100000 0.002009
v -0.009454 0.100000 -0.002009
v -0.007819 0.100000 -0.005681
v -0.004832 0.100000 -0.008370
v -0.001010 0.100000 -0.009612
v 0.002987 0.100000 -0.009192
v 0.006467 0.100000 -0.007182
v 0.014433 0.100000 -0.006426
v 0.015799 0.100000 0.000000
v 0.014433 0.100000 0.006426
v 0.010572 0.100000 0.011741
v 0.004882 0.100000 0.015026
v -0.001651 0.100000 0.015712
v -0.007899 0.100000 0.013682
v -0.012782 0.100000 0.009286
v -0.015454 0.100000 0.003285
v -0.015454 0.100000 -0.003285
v -0.012782 0.100000 -0.009286
v -0.007899 0.100000 -0.013682
v -0.001651 0.100000 -0.015712
v 0.004882 0.100000 -0.015026
v 0.010572 0.100000 -0.011741
v 0.015799 0.110000 0.000000
v 0.014433 0.110000 -0.006426
v 0.014433 0.110000 0.006426
v 0.010572 0.110000 0.011741
v 0.004882 0.110000 0.015026
v -0.001651 0.110000 0.015712
v -0.007899 0.110000 0.013682
v -0.012782 0.110000 0.009286
v -0.015454 0.110000 0.003285
v -0.015454 0.110000 -0.003285
v -0.012782 0.110000 -0.009286
v -0.007899 0.110000 -0.013682
v -0.001651 0.110000 -0.015712
v 0.004882 0.110000 -0.015026
v 0.010572 0.110000 -0.011741
v 0.022839 0.000000 -0.010168
v 0.025000 0.000000 0.000000
v 0.022839 -0.000000 0.010168
v 0.016728 0.000000 -0.018579
v 0.007725 0.000000 -0.023776
v -0.002613 0.000000 -0.024863
v -0.012500 0.000000 -0.021651
v -0.020225 0.000000 -0.014695
v -0.024454 0.000000 -0.005198
v -0.024454 -0.000000 0.005198
v -0.020225 -0.000000 0.014695
v 0.016728 -0.000000 0.018579
v -0.012500 -0.000000 0.021651
v -0.002613 -0.000000 0.024863
v 0.007725 -0.000000 0.023776
v 0.025000 0.010000 0.000000
v 0.022839 0.010000 -0.010168
v 0.016728 0.010000 -0.018579
v 0.007725 0.010000 -0.023776
v -0.002613 0.010000 -0.024863
v -0.012500 0.010000 -0.021651
v -0.020225 0.010000 -0.014695
v -0.024454 0.010000 -0.005198
v -0.024454 0.010000 0.005198
v -0.020225 0.010000 0.014695
v -0.012500 0.010000 0.021651
v -0.002613 0.010000 0.024863
v 0.007725 0.010000 0.023776
v 0.016728 0.010000 0.018579
v 0.022839 0.010000 0.010168
v 0.008829 0.010000 -0.003931
v 0.009665 0.010000 0.000000
v 0.008829 0.010000 0.003931
v 0.006467 0.010000 0.007182
v 0.002987 0.010000 0.009192
v -0.001010 0.010000 0.009612
v -0.004832 0.010000 0.008370
v -0.007819 0.010000 0.005681
v -0.009454 0.010000 0.002009
v -0.009454 0.010000 -0.002009
v -0.007819 0.010000 -0.005681
v -0.004832 0.010000 -0.008370
v -0.001010 0.010000 -0.009612
v 0.002987 0.010000 -0.009192
v 0.006467 0.010000 -0.007182
v 0.009665 0.100000 0.000000
v 0.008829 0.100000 -0.003931
v 0.008829 0.100000 0.003931
v 0.006467 0.100000 0.007182
v 0.002987 0.100000 0.009192
v -0.001010 0.100000 0.009612
v -0.004832 0.100000 0.008370
v -0.007819 0.100000 0.005681
v -0.009454 0.100000 0.002009
v -0.009454 0.100000 -0.002009
v -0.007819 0.100000 -0.005681
v -0.004832 0.100000 -0.008370
v -0.001010 0.100000 -0.009612
v 0.002987 0.100000 -0.009192
v 0.006467 0.100000 -0.007182
v 0.014433 0.100000 -0.006426
v 0.015799 0.100000 0.000000
v 0.014433 0.100000 0.006426
v 0.010572 0.100000 0.011741
v 0.004882 0.100000 0.015026
v -0.001651 0.100000 0.015712
v -0.007899 0.100000 0.013682
v -0.012782 0.100000 0.009286
v -0.015454 0.100000 0.003285
v -0.015454 0.100000 -0.003285
v -0.012782 0.100000 -0.009286
v -0.007899 0.100000 -0.013682
v -0.001651 0.100000 -0.015712
v 0.004882 0.100000 -0.015026
v 0.010572 0.100000 -0.011741
v 0.015799 0.110000 0.000000
v 0.014433 0.110000 -0.006426
v 0.014433 0.110000 0.006426
v 0.010572 0.110000 0.011741
v 0.004882 0.110000 0.015026
v -0.001651 0.110000 0.015712
v -0.007899 0.110000 0.013682
v -0.012782 0.110000 0.009286
v -0.015454 0.110000 0.003285
v -0.015454 0.110000 -0.003285
v -0.012782 0.110000 -0.009286
v -0.007899 0.110000 -0.013682
v -0.001651 0.110000 -0.015712
v 0.004882 0.110000 -0.015026
v 0.010572 0.110000 -0.011741
vn -0.1045 0.0000 -0.9945
vn -0.5000 0.0000 -0.8660
vn -0.8090 0.0000 -0.5878
vn -0.9781 -0.0000 -0.2079
vn -0.9781 -0.0000 0.2079
vn -0.8090 0.0000 0.5878
vn -0.5000 0.0000 0.8660
vn -0.1045 -0.0000 0.9945
vn 0.3090 -0.0000 0.9511
vn 0.6691 0.0000 0.7431
vn 0.9135 0.0000 0.4067
vn 1.0000 0.0000 -0.0000
vn 0.9135 -0.0000 -0.4067
vn 0.6691 -0.0000 -0.7431
vn 0.0000 -1.0000 -0.0000
vn 0.3090 0.0000 -0.9511
vn -0.0000 1.0000 0.0000
usemtl Default
s 1
f 178//1 162//2 177//2
f 177//2 71//3 176//3
f 176//3 160//4 175//4
f 175//4 159//5 174//5
f 174//5 158//6 173//6
f 173//6 157//7 172//7
f 172//7 156//8 171//8
f 171//8 65//9 170//9
f 170//9 154//10 169//10
f 169//10 153//11 168//11
f 168//11 152//12 166//12
f 166//12 151//13 167//13
f 180//14 151//13 75//14
f 61//15 60//15 165//15
f 62//15 47//15 61//15
f 48//15 62//15 63//15
f 49//15 63//15 64//15
f 155//15 49//15 64//15
f 51//15 155//15 66//15
f 67//15 51//15 66//15
f 68//15 142//15 67//15
f 144//15 68//15 69//15
f 70//15 144//15 69//15
f 161//15 145//15 70//15
f 147//15 161//15 72//15
f 148//15 72//15 73//15
f 164//15 148//15 73//15
f 60//15 164//15 165//15
f 45//14 149//16 150//14
f 31//13 150//14 137//13
f 122//12 137//13 136//12
f 123//11 136//12 138//11
f 124//10 138//11 139//10
f 35//9 139//10 140//9
f 36//8 140//9 141//8
f 127//7 141//8 52//7
f 38//6 52//7 53//6
f 129//5 53//6 54//5
f 130//4 54//5 55//4
f 131//3 55//4 56//3
f 132//2 56//3 57//2
f 133//1 57//2 58//1
f 133//1 149//16 44//16
f 134//17 20//17 43//17
f 135//17 19//17 134//17
f 121//17 18//17 135//17
f 32//17 17//17 121//17
f 30//17 32//17 33//17
f 29//17 33//17 34//17
f 28//17 34//17 125//17
f 27//17 125//17 126//17
f 37//17 27//17 126//17
f 25//17 37//17 128//17
f 39//17 25//17 128//17
f 23//17 39//17 40//17
f 22//17 40//17 41//17
f 42//17 22//17 41//17
f 20//17 42//17 43//17
f 111//2 96//1 97//2
f 112//3 97//2 98//3
f 110//1 95//16 96//1
f 113//4 98//3 99//4
f 109//16 94//14 95//16
f 114//5 99//4 100//5
f 115//6 100//5 101//6
f 116//7 101//6 103//7
f 117//8 103//7 104//8
f 118//9 104//8 105//9
f 118//9 102//10 119//10
f 91//13 108//14 107//13
f 119//10 93//11 120//11
f 92//12 120//11 93//11
f 107//13 92//12 91//13
f 179//16 163//1 178//1
f 180//14 74//16 179//16
f 86//17 82//17 78//17
f 3//15 13//15 8//15
f 178//1 163//1 162//2
f 177//2 162//2 71//3
f 176//3 71//3 160//4
f 175//4 160//4 159//5
f 174//5 159//5 158//6
f 173//6 158//6 157//7
f 172//7 157//7 156//8
f 171//8 156//8 65//9
f 170//9 65//9 154//10
f 169//10 154//10 153//11
f 168//11 153//11 152//12
f 166//12 152//12 151//13
f 180//14 167//13 151//13
f 61//15 47//15 60//15
f 62//15 46//15 47//15
f 48//15 46//15 62//15
f 49//15 48//15 63//15
f 155//15 50//15 49//15
f 51//15 50//15 155//15
f 67//15 142//15 51//15
f 68//15 143//15 142//15
f 144//15 143//15 68//15
f 70//15 145//15 144//15
f 161//15 146//15 145//15
f 147//15 146//15 161//15
f 148//15 147//15 72//15
f 164//15 59//15 148//15
f 60//15 59//15 164//15
f 45//14 44//16 149//16
f 31//13 45//14 150//14
f 122//12 31//13 137//13
f 123//11 122//12 136//12
f 124//10 123//11 138//11
f 35//9 124//10 139//10
f 36//8 35//9 140//9
f 127//7 36//8 141//8
f 38//6 127//7 52//7
f 129//5 38//6 53//6
f 130//4 129//5 54//5
f 131//3 130//4 55//4
f 132//2 131//3 56//3
f 133//1 132//2 57//2
f 133//1 58//1 149//16
f 134//17 19//17 20//17
f 135//17 18//17 19//17
f 121//17 17//17 18//17
f 32//17 16//17 17//17
f 30//17 16//17 32//17
f 29//17 30//17 33//17
f 28//17 29//17 34//17
f 27//17 28//17 125//17
f 37//17 26//17 27//17
f 25//17 26//17 37//17
f 39//17 24//17 25//17
f 23//17 24//17 39//17
f 22//17 23//17 40//17
f 42//17 21//17 22//17
f 20//17 21//17 42//17
f 111//2 110//1 96//1
f 112//3 111//2 97//2
f 110//1 109//16 95//16
f 113//4 112//3 98//3
f 109//16 108//14 94//14
f 114//5 113//4 99//4
f 115//6 114//5 100//5
f 116//7 115//6 101//6
f 117//8 116//7 103//7
f 118//9 117//8 104//8
f 118//9 105//9 102//10
f 91//13 94//14 108//14
f 119//10 102//10 93//11
f 92//12 106//12 120//11
f 107//13 106//12 92//12
f 179//16 74//16 163//1
f 180//14 75//14 74//16
f 76//17 77//17 90//17
f 90//17 89//17 86//17
f 89//17 88//17 86//17
f 88//17 87//17 86//17
f 86//17 85//17 84//17
f 84//17 83//17 86//17
f 83//17 82//17 86//17
f 82//17 81//17 78//17
f 81//17 80//17 78//17
f 80//17 79//17 78//17
f 78//17 76//17 86//17
f 76//17 90//17 86//17
f 1//15 2//15 3//15
f 3//15 12//15 15//15
f 15//15 14//15 3//15
f 14//15 13//15 3//15
f 13//15 11//15 8//15
f 11//15 10//15 8//15
f 10//15 9//15 8//15
f 8//15 7//15 6//15
f 6//15 5//15 4//15
f 4//15 1//15 3//15
f 8//15 6//15 4//15
f 4//15 3//15 8//15
